<svg xmlns="http://www.w3.org/2000/svg" version="1.0" viewBox="0 0 682 459"><g stroke="#000" stroke-width="3.5"><path d="M68 229.5V413h545V46H68zm373-179c0 1.3-5.5 11.4-9 16.5-2 3-4.7 7.4-5.9 9.7l-2.1 4.2 3.7 1c2.1.6 5.3 2 7.1 3.1l3.3 2 2.4 5.3c2.8 5.8 3.1 9.1 1.3 14.8l-1.1 3.9-4.9 5-4.8 4.9v66l4.8-.5c2.6-.3 15.1-1.6 27.7-3 12.7-1.3 30.2-3.3 39-4.3l16-1.9.6 1 .6 1 22.8-3.2 22.8-3.1 5 .6c7.5 1.1 13.4 4 18.1 9l4.2 4.4 1.7 5.4c2.2 7 2.1 13.6-.7 45.7l-2.3 26.5-3.1 6.7c-4.8 10.5-13.7 18.9-23.3 22.3-2.2.8-12.3 2.6-22.2 4-10 1.3-19.8 2.9-21.7 3.4s-14.3 2.4-27.5 4.1-26 3.8-28.5 4.8c-2.5.9-7.5 1.6-11.2 1.7h-6.6l1.1 1.5c.6.8 2.2 2.7 3.6 4.3l2.5 2.7-1 1c-.5.5-4.5 1.5-8.9 2.3s-7.2 1.5-6.3 1.6l1.7.1 1.2 3.9 1.2 3.9-.7 4.5-.7 4.5-4 4.5c-5.6 6.4-17.3 9.2-23.8 5.7l-2.3-1.2-4.4 4.4c-9.6 9.3-20.9 19.8-21.6 19.8-.5 0-2.5 1.5-4.5 3.3-7.1 6.3-35.3 24.1-40.2 25.4l-1.9.5-12.3-6.7c-6.8-3.7-14-7.7-15.9-9-7.5-5-21.4-15.2-25.7-18.7l-4.4-3.8-2.9 1.5c-4.4 2.3-11.2 2.9-16.9 1.5l-5.1-1.2-4-4-4-4.1-1.6-5.3-1.5-5.4 1.6-5.7 1.7-5.7 3.7-3.7 3.7-3.7 4.3-1.2 4.4-1.2 5.9 1.1c6 1 11 3.5 14.1 6.9l1.7 1.9.3 5.2.3 5.3 6.5 5.5c14.3 12.2 25.6 20.1 40.2 27.8l6.7 3.5 6.3-3.4c15.3-8.2 33.8-23.2 46.9-37.9l8.4-9.5-.4-3.5-.4-3.6 2.8-4c1.6-2.2 5-5.1 7.6-6.5l4.8-2.6h13.5l3.3 2c3.5 2.1 6.8 2.5 9.1 1.1l1.4-.9-5.3-6.1-5.3-6.1 1.3-1.5c1.6-2 4.5-1.9 7.7.2l2.6 1.7 8.6.4 8.6.4 5.3-2c3-1.2 6-1.8 6.7-1.6 1.4.6 14.2-1 21-2.6 2.2-.5 5.2-1.1 6.7-1.4l2.6-.6.7-3c.4-1.6 1.3-3 2.1-3h1.4v6l2.3-.5c1.2-.3 10.8-1.6 21.2-3 27-3.6 26.4-3.5 33.1-6.5 17.5-7.8 20.8-15.9 24.4-59.7l2.1-24.6-1.1-5.4-1.2-5.4-4-4.7c-2.2-2.6-5.2-5.4-6.7-6.2l-2.6-1.5-10.5.1c-5.8 0-14.5.9-19.5 1.9-4.9.9-10.7 2-12.7 2.2-2.1.3-3.8.9-3.8 1.5 0 .5-.8.7-1.8.3-1.8-.5-20 1.7-25.7 3.1l-2.5.6.6-1.6.6-1.6h-1.9c-5 0-55.8 5.2-63.7 6.5-5 .8-9.3 1.2-9.8.7-.4-.4-.9-9.5-1-20.2l-.3-19.5-1.3 6c-.8 3.3-2 9-2.9 12.7l-1.5 6.8H414v-60.1l-1 .6c-1.5.9-5.7-2-6.5-4.5-.3-1.1-1.1-2-1.6-2h-.9v79.2l1.8-.8c.9-.4 3.9-.9 6.5-1.2l4.8-.4 3.4 3.6 3.4 3.6h2.5c4.1 0 4 1.9-.2 2.6l-4 .6.5 1.9c.3 1.1 0 2.5-.6 3.2-1.3 1.7-.5 2.7 2.4 2.7 1.2 0 4 1.6 6.3 3.6l4.2 3.5 1.1 3.8 1.1 3.8-1.6 16.9c-.9 9.3-2.1 22.4-2.7 29.2l-1.1 12.3 2.1 2.3c2.1 2.2 2.8 4.6 1.4 4.6-.5 0-2.1 1.8-3.7 4-1.7 2.2-3.7 4-4.5 4-.9.1-2.8 1.1-4.3 2.3l-2.7 2.2 3 4.9c1.7 2.6 2.9 4.9 2.7 5.1-.5.5-16 3.6-16.2 3.3 0-.2-1.2-2.4-2.5-5.1l-2.4-4.7H402c-3.7 0-9.2-3.9-11.2-8l-1.8-3.5V287c0-5.9 3.6-52.2 4.5-58 .3-1.9 1.9-5.7 3.6-8.3l3-4.8 4.6-2.9 4.7-3H407c-2.8 0-7.1-3.7-6.4-5.5l.5-1.3-8.1 2.4-8.1 2.3-2.5-.9c-1.4-.6-3.7-1-5.1-1h-2.5l1.2 1.5c.7.8 2.2 1.5 3.4 1.5l2.1.1-2.1 1.2c-1.2.7-1.9 1.8-1.7 2.4l.5 1.3-2.4.1c-1.2.1-.3.5 2.1 1 8 1.6 12.1 7.5 12.1 17.8 0 10.6-.9 11.6-11.6 12.7l-6.6.7.7-5.1c.4-2.8.4-6 0-7.1l-.6-2.1h-2.3c-4.2 0-7.5 6.2-6.2 11.4.3 1.3 4.5 6.6 9.2 11.8 4.7 5.1 9.7 11.4 11 14l2.4 4.7V288l-1.9 5c-1.1 2.8-3.2 6.7-4.7 8.7l-2.7 3.5-5.6 2.6-5.6 2.6h-13l-3.3-1.7c-1.8-1-4.2-3.2-5.2-5l-2-3.2V292c0-10.5.1-10.6 7.5-11.4 3.3-.4 6.9-1 8-1.2l2.1-.5-.4 7-.4 7.1 1.6.6c4.5 1.7 8.6-2.4 8.6-8.7 0-4.2-1-5.8-10.2-15.7-4.4-4.8-9.1-11-10.4-13.7l-2.4-5v-4.6c0-5.4 2.4-14.1 5.2-18.7l2-3.2h-1.6c-.9 0-2.1-1.1-2.8-2.4l-1.1-2.5-3.1-.3-3.1-.4 2.8-1.3 2.7-1.4v-2.1c0-1.2.9-3.9 1.9-6l2-3.8-2.2.6c-5.8 1.4-45.1 8.5-45.4 8.2-.4-.4 4.4-8.1 20.8-33.1 23.8-36.4 26.8-41 26-41.3-.5-.1-4.4 1.4-8.7 3.4-4.4 2-12.4 5.6-17.9 7.9-5.5 2.4-14.5 6.3-20 8.8l-10 4.4-3.1 13.4c-4.6 19.8-8 31.9-9.2 33.1l-1.2 1.2v-25.1l-2.5-9.9c-1.4-5.4-3.4-11.6-4.5-13.8s-1.6-4.3-1.2-4.7c.7-.6 10.9-5.3 34.7-16.2 10.2-4.6 24.9-11.3 48-21.8 7.2-3.3 14.9-7 17.2-8.1l4.2-2.2-.5-2.2c-.3-1.1.1-3.7.9-5.6l1.5-3.6 3.7-1.2c4.3-1.4 7.8-.7 10.6 2.1l2.1 2.1 3.9-1.7c2.1-1 3.6-2.1 3.4-2.5-1.8-2.9 7.2-12.4 14.2-15.1l2.6-1 .7 1.1c.7 1.2 7.3-12.6 6.8-14.2-.2-.5-2.9 1.8-6.1 5.1l-5.8 6-5.7 1.1c-11.1 2-40.7 11.6-46.3 14.9-.9.5-5.8 2.7-11 4.9-9.8 4.2-21.1 10.2-19.4 10.2 1.3 0 16.2-4.8 20-6.5 1.7-.7 5.9-2.1 9.5-3s7.3-1.8 8.3-2.1c.9-.3 1.7-.1 1.7.5 0 .8-23.9 13.1-25.5 13.1-.5 0-14.8 6.7-29 13.5-3.8 1.9-12.4 5.8-19 8.8-28.8 13.2-33.4 15.4-32.9 16 .4.3-.3 1.9-1.5 3.5-1.1 1.6-2.5 4.2-3.1 5.7l-1 2.7 2.6 8.2c1.4 4.4 3.1 9.2 3.7 10.5l1.2 2.4v37.6l-1.5 1.4-1.5 1.4-16.7 2.3-16.8 2.4v2.4l-8.2-.5-8.3-.4-8.5 1.6c-4.7.8-11 2-14 2.6l-5.5 1-1.2-1.7-1.3-1.7-2.5 1.1c-1.4.7-3.6 1.2-4.9 1.2-1.2 0-2.5.3-2.8.6-1 .9 2 5.8 3.7 6 2 .3 3.3 1.4 1.7 1.4H177v4.7c0 5.5-1.7 12.5-3.3 13.5l-1.1.7 1.3 13.8c.7 7.6 1.7 15.6 2.1 17.8 1.7 7.8 5.2 43.7 4.3 44.5s-16.4 3-17.4 2.4c-.4-.2-1-3.5-1.4-7.3l-.7-6.9-1.6.4c-1 .1-3.3.6-5.4.9l-3.6.6-2.4 7.5-2.3 7.6-2 .8c-3.3 1.3-15.5 2.3-15.5 1.4 0-.5 1.2-5.2 2.5-10.4 4.1-16.1 12.2-46.9 15.4-59 1.7-6.3 3.1-11.6 3.1-11.6 0-.1-1.4-.4-3.1-.8-4-.8-8.5-5.6-9.3-10.1l-.7-3.5-2.2-.5c-2.3-.6-24.6 2.7-28.5 4.2l-2.4.9 14.4 3.6c12.3 3.2 22.7 5.9 23.5 6.3.4.2-2.7 11.8-3.7 14-.5 1.1-2.8 9.8-5 19.4-2.3 9.6-4.3 17.8-4.6 18.3-.6.9-10.4 40.2-10.1 40.4.1.1 5.6-.6 12.2-1.6s14.1-2.1 16.7-2.4l4.7-.7 1.1-3.5c1.4-4.2 2.6-4.3 3.3-.4l.6 3h2c1.1 0 3-.4 4.3-.9s4.6-1.1 7.2-1.2l4.9-.4-.2 14-.1 14 2.2-2.6c8.3-9.6 29.2-31.9 30-31.9.5 0 .2 1.3-.7 2.9l-1.5 2.9 1.3.5 1.2.4-1.5 2.6c-2.6 4.4-35.4 39.5-37 39.6l-1.5.1.7-17.2c.3-9.5.4-17.5.2-17.7-.7-.7-35 3.8-41.4 5.4-7.2 1.8-15.7 2.8-16.8 2.1l-1-.6 2.4-9.7c1.4-5.4 2.9-10.7 3.4-11.8.4-1.1 2.9-10.3 5.5-20.5 2.5-10.2 6.3-25.5 8.5-34s3.9-16.2 4-17.1v-1.6l-9.7-2.7c-5.4-1.5-17.2-4.5-26.3-6.7-9-2.1-16.8-4.3-17.3-4.8-1.4-1.4 4.3-2.9 23.8-6.2 10.5-1.7 19.1-3.2 19.3-3.3.1-.2-1.4-1.1-3.3-2.2-1.9-1-3.5-2.3-3.5-2.9v-1.1l13.1-1.9c7.1-1 12.5-2.1 11.9-2.5l-1.2-.7 3.3-2.5c6.2-4.6 13.4-5.9 19.7-3.7 1.8.6 2.9 1.5 2.6 2-.7 1.2-.7 1.2 13.4-.8l12.3-1.7.7 1.1.7 1.1 9-1.4c5-.7 13.5-1.8 19-2.4 10.1-1.1 28.3-4.5 29.2-5.4.3-.3.8-6.3 1-13.3l.5-12.8-1.5-6.6c-.9-3.6-2.5-9-3.7-12.1l-2.1-5.7-2.2.8-2.2.8-4-1.4c-10.4-3.6-15.9-14.2-13.1-25l1.5-5.6 2.8-2.9c4-4.2 8.1-6.5 13.1-7.3l4.3-.7 4.9 1.2 5 1.2 2.5 2.9 2.4 3 8.3-4c24.8-11.7 30-14.1 30.6-14.1.4 0 3.9-1.5 7.7-3.4C315.8 107 337.1 97 337.8 97c.3 0 3.7-1.5 7.6-3.4 12.1-5.8 37.5-17.6 38-17.6.3 0 5.6-2.4 11.8-5.3 6.2-3 15.4-7.3 20.3-9.6 5-2.3 12.2-5.7 16-7.6 6.7-3.2 9.5-4.1 9.5-3zm133.1 139.8c1.9 1.2 4.3 4 5.3 6.1l1.9 4-2.2 28c-1.2 15.5-2.7 30.3-3.3 32.9l-1 4.8-3.9 4.9c-4.5 5.7-9.4 8.5-16.4 9.5-2.8.4-6.4 1.1-8.1 1.6s-5.8 1.1-9 1.3c-3.2.3-6.6.7-7.4 1-2.6.9-15.3 2.5-16.1 2.1-.4-.3-1-3.7-1.4-7.6l-.7-7-1.3.5c-.7.2-3.3.7-5.8 1.1l-4.6.7-1.6 7.4-1.7 7.3-1.6.5c-1 .3-4.9.8-8.8 1.2l-7.2.6 3-10.8c5.5-19.8 12.7-46.7 16.4-61.2l3.7-14.3-2.8-2.9c-3.5-3.7-2.8-4.6 4.2-5.3 3.2-.4 8.3-.9 11.4-1.3l5.7-.7.5 1.9c.6 1.8 2.1 15.7 7.1 63.9l2.3 22 .6-3.5c.8-4.7 4.3-39.3 6.2-61.4l1.6-17.9-3.1-3.2-3.1-3.2 1.6-.7c.9-.3 3.1-.6 4.8-.7 1.8 0 6.8-.9 11.2-1.9s10.7-1.8 14.1-1.9l6.1-.1zm-87.6 16.6c-.3 3.6-1.2 13.8-2.1 22.6-.8 8.8-2.1 23.2-2.9 32l-1.4 15.9-2.4 4.5c-1.3 2.5-4.6 6.4-7.4 8.7l-5.1 4.1-5.1 1.3-5.2 1.2-4.6-.7-4.7-.7-3.7-3.7-3.7-3.7-.7-3.5c-.3-1.9.6-19.5 2.2-39.2l2.8-35.8-1.3-1.1-1.3-1.1 1-1c.9-.9 18.2-4 18.8-3.3.3.3-3.3 47.7-4.8 62.4l-1.1 11.2 1.2 1.5c1.8 2.2 4.7 1.8 6.5-.9l1.6-2.4 1.4-13.2c.8-7.3 2.4-23.6 3.5-36.2 1.1-12.7 2.1-23.3 2.3-23.5.8-.7 14.2-2.9 15.5-2.5l1.3.5zm-159.1 19.8c.3 2.7 1.7 16.3 3.1 30.5 1.4 14.1 2.7 26.2 3 27 .8 2.1 3.5 29.2 2.9 29.7-.6.6-10 1.9-14.5 2l-3.6.1-.7-7.1-.7-7.1-5.2.7c-6.2.9-6.7 1.1-6.7 3.4 0 1-.3 2.1-.7 2.5-.5.4-1.3 2.8-1.8 5.4l-1 4.7-3.5.7c-1.9.4-5.5 1.1-8 1.7-2.5.5-4.9.6-5.3.1-.5-.4.8-7 2.7-14.6 4-15.3 10.8-41.5 15.5-59.4 3.7-14 3.7-14.1.6-17-1.4-1.3-2.5-2.9-2.5-3.5v-1.2l11.3-1.5c6.1-.8 11.9-1.6 12.9-1.7l1.6-.1zm-36.9 6.5c-.3 3.5-1.7 20-3 36.8-1.4 16.8-2.9 33.2-3.5 36.5-.5 3.3-1 7.9-1 10.2v4.2l-1.7 1c-1 .5-5 1.2-9 1.6l-7.2.7-1-3.9c-.6-2.2-1.4-5.5-1.7-7.4-.4-1.8-1-3.6-1.4-3.9s-2-5.8-3.5-12.3c-1.6-6.4-3-11.5-3.3-11.2-.3.2-1.2 9.6-2.1 20.7l-1.6 20.3-8.5 1.2c-4.6.6-8.5 1.1-8.6 1-.2-.2 1.9-27.4 4.7-61.5l2.1-26.4-1.1-2.5c-.7-1.4-1-2.7-.8-2.9.7-.7 19.7-3 20.5-2.5.5.3 2 5.1 3.4 10.6 1.5 5.5 3.5 13.1 4.6 17l1.9 7 .6-2.5c.9-3.9 1.6-9.5 2.8-22.5.6-6.6 1.4-12.3 1.8-12.8.7-.7 9.9-2.3 14.9-2.6l2.3-.1zm-62.4 7.1c1.8 1.2 4.4 4 5.6 6.2l2.3 4v5.5c0 7.3-2.4 21.5-4.5 26.8l-1.7 4.2-5 4.5c-4.9 4.4-8.5 6-16.5 7.2l-4.2.6-.6 4.1c-.3 2.2-.9 9.6-1.4 16.3l-.9 12.2-4.8 5.7c-2.7 3.1-6.8 7.7-9.2 10.3l-4.2 4.5-1-1-1.1-1.1 1.1-6.4c.6-3.5 2.4-22.8 4-42.9 1.7-20.1 3.3-39.7 3.6-43.5l.6-7-2.6-2.4c-2.5-2.3-3.5-5.1-1.8-5.1 1.4-.1 17.8-2.9 21.7-3.8 2.2-.6 7-1 10.6-1.1l6.6-.1zM395.4 312c.6 0 1.7.4 2.5.9l1.3.8-5.8 7.2c-3.2 3.9-6.4 7.1-7.1 7.1H385v-19.8l1.2-.4c.7-.3 2.8.6 4.7 1.9 1.8 1.3 3.9 2.3 4.5 2.3zM312 324.5c0 .8.9 1.5 2 1.5s4.1 1.5 6.7 3.4c2.7 1.8 8.1 5 12.1 7l7.2 3.6v28h-1.2c-3.7 0-23.1-11.5-33.7-19.9-7-5.5-19.1-16.4-19.1-17.2 0-.3 5-1.2 11.1-1.9l11.1-1.3.9-2.3c1-2.7 2.9-3.2 2.9-.9z"/><path d="M358.5 171.7c-6.1 9.1-11.1 16.9-11.3 17.3-.2.5 2.5 0 6-1s7.6-2.1 9.1-2.5l2.8-.6-1.5-1.5c-3.5-3.4 4.2-13.5 8.3-10.9l1.1.6v-8.7c0-4.8-.3-8.4-.7-8.1-.3.4-1.1.3-1.7-.2l-1.1-1zm53.1 55.5c-.8 1.3-1.7 5.7-2 9.8s-1.3 16.4-2.2 27.3c-.9 10.8-1.3 20.4-1 21.2.7 1.9 5 1.9 6.6 0l1.3-1.5-2.7-2.1-2.7-2.1.7-6.7c.8-7.9.8-7.9 3.5-5.6l2 1.9.9-1.4c.6-.8 1-3.8 1-6.5.1-2.8.7-11.5 1.4-19.5 1.5-16.5 1.4-17-2.5-17H413zm-254.3 67.5c-.7 1.5-1.4 4-1.7 5.5-.3 1.6-.8 3.9-1.1 5.3l-.5 2.5h5.6l-.4-6.8c-.4-9.3-.5-9.6-1.9-6.5zm243.3 51.9c-1.7 2.1-5.6 6.1-8.6 9-7.2 7-5.2 6.9 3-.1 3.6-3 6.8-5.5 7.2-5.5s1.6-1.3 2.7-2.9l2.1-2.9-1.6-.6-1.7-.6zm156.3-140.9-1.5.4-1.3 14.7c-.6 8.1-1.6 17.4-2.1 20.7-.4 3.3-1.1 9.9-1.5 14.7l-.7 8.8h2.7c1.4 0 3.6-1 4.8-2.3l2.3-2.2 1.3-15.5c.7-8.5 1.8-20.3 2.4-26.3 1.6-13.3.8-15-6.4-13zm-50.3 42.4c-1.9 9.1-1.9 9.3 1.9 8.3l2.7-.7-.6-2.1c-.3-1.1-.6-4.7-.6-7.9 0-8-1.4-7.1-3.4 2.4zm-194.4 25.4c-.7 3.9-1.6 8-1.9 9.2l-.5 2.3h5.2l-.1-6.8c-.1-3.7-.4-7.8-.8-9.2l-.7-2.4zm-104.9-6.3c-.6 6.2-1.4 12.2-1.8 13.2l-.8 1.9 3.9-.6c2.1-.4 4.6-1.6 5.6-2.7l1.6-2 .7-8.3c.4-4.6.5-9.2.3-10.3l-.3-1.9-4.1-.3-4.1-.3z"/></g><path fill="#1B0000" stroke="#1B0000" stroke-width="3.5" d="m421.6 83.7-.6 1.5 1.3-.5c1.7-.6 10.4 4.2 13.1 7.2l2 2.2.3 5.7.4 5.7-2 3.2-2 3.3-1.5-.6-1.5-.6.6 2.1c.3 1.2.9 2.1 1.2 2.1 1.4 0 5-4.5 6.4-8 1.4-3.3 1.4-4.6.2-11.6-.7-4.1-6-9-12.2-11.4l-5.1-1.9zm-184.7 45.7c-5.2 1.8-9.7 5.3-11.6 8.9l-1.7 3.2v6.1l-.1 6 2.7 4.1 2.7 4.1 4.5 2.2 4.5 2.2 2.2-.7 2.2-.7-1.4-.8c-.7-.5-1.6-.7-2-.4-1.7 1-7.8-3.1-10.3-6.9l-2.6-4.1v-10.9l2-3.1c1-1.8 3.8-4.2 6.1-5.5l4.1-2.3h4.3c2.4.1 6.1.9 8.2 1.8s4.4 1.8 5.2 2l1.4.3-1.9-1.8c-2-1.9-10.5-5.1-13.3-5.1-.9.1-3.2.7-5.2 1.4zM149 227.6c-2.5.9-4.9 2-5.5 2.5l-1 1 5-.5c2.8-.2 7-.5 9.5-.6l4.5-.1-2-.9-2-.9h1.9c2.7-.1 1.7-.7-2.4-1.4l-3.5-.6zm265.5 89.6c-1.1.6-2.2 1.4-2.5 1.7-.3.4-1.6 1.1-2.9 1.7-1.4.6-2.5 2-2.6 3.2-.1 1.1.2 1.9.7 1.6.4-.3.8-1.2.8-2v-1.5l2.3.3 2.2.3 1.6-1.9 1.6-1.9 3.4.1c1.9 0 4.9.1 6.8.2 3.1.1 5-.5 4-1.4-.2-.2-3.3-.6-6.9-.9l-6.5-.6zm18 8.5c7 1.6 5.5 15-2.2 20.7-1.5 1.1-4.9 2.1-7.8 2.4l-5.1.4-1.5-1.4c-.8-.8-2-1.3-2.6-1.1l-1.3.5 1.5 1.5c2.2 2.2 8.8 2.8 14.1 1.3l4.5-1.3 3.4-4.4c1.8-2.4 3.6-6.1 4-8.2l.6-3.8-1.5-3.7-1.5-3.6-3.3.1-3.3.1zm-177.3 8c-4.8 2.8-7 6.3-7.8 12.7l-.7 4.5 1.8 4.3c1.9 5 4.8 8.4 8.8 10.5 3.6 1.8 14.6 2 17.8.2 1.3-.7 2.8-1.2 3.2-1.1.5.1.6-.2.2-.8-.3-.6-1-.8-1.5-.5-.4.3-1.1-.2-1.4-1l-.6-1.5-2 2-2 2h-4.7c-6.4 0-11.3-2.6-14-7.5l-2.3-4v-4.6c0-5.2 1.8-11.2 3.1-10.3.5.3.6-.2.3-1l-.6-1.5 2.9-.7c1.5-.4 3.3-1 3.8-1.4 1.7-1.3 10-.4 12.5 1.3 1.4.9 3.2 1.7 4.2 1.7s1.9.4 1.9 1c.1.5.2 1.5.3 2.1 0 .6.9 1.6 1.8 2.3 1 .7 1.6 1.5 1.3 1.8-.3.2 1 1.8 2.8 3.4l3.2 2.9-2.4-2.7c-1.3-1.5-2.5-4.1-2.6-5.8l-.3-3.2-2.7-2.8-2.8-2.9-4.9-1c-7.3-1.6-11.8-1.2-16.6 1.6z"/><path fill="#362400" stroke="#362400" stroke-width="3.5" d="M418.7 87c-7.1 2.1-12.1 8.1-11.9 14.3.3 5.7 4.9 13.3 6.9 11.3.4-.4.3-1-.3-1.4-7.8-5.4-6.8-15.5 2.1-20.8l4.5-2.6 2.8.6c1.5.4 3.5.9 4.5 1.2.9.3 1.7.1 1.7-.5 0-.9-1.9-1.7-6-2.6-.8-.2-2.8.1-4.3.5zm-183.5 48.1c-5.4 2.7-7.5 5.8-7.4 11 .1 6.6 5 14.8 9 14.9 2.1 0 1.3-1.4-1.7-3.1l-2.9-1.7-1.1-5.1c-.6-2.9-1.1-6.2-1.1-7.5 0-6.3 14.3-11.6 19.8-7.3.7.5 1.5.7 1.9.3 1.4-1.3-1.6-2.7-6.8-3.2l-5.4-.5zm196.4 192.6c.5 1 .9 3.9.9 6.5v4.8l-3.2 3.2-3.2 3.2H421c-2.7 0-5 .3-5 .8 0 1.4 9.1.8 11.9-.8 3.8-2.2 7.1-7.4 7.1-11.1 0-4-1.6-8.3-3.1-8.3h-1.1zM253 342.6c-2.2 5.7-.4 13.9 4 17.9 4 3.6 15 2.8 15-1.1v-1.5l-1.6 1.5c-2 2-7.6 2.1-11.4.1l-2.8-1.5-1.2-3.6c-1.2-3.5-1-9 .5-12.7l.7-1.7h-1.1c-.6 0-1.6 1.2-2.1 2.6z"/><path fill="#432400" stroke="#432400" stroke-width="3.5" d="M238.5 135.6c-2.1.8-5 2.4-6.3 3.7l-2.4 2.2.6 5.2c.9 7.5 2.1 10 5.8 11.8l3.3 1.6-2.9-2.4c-1.6-1.4-3-3.6-3.1-4.9-.2-1.4-.9-3.4-1.6-4.6l-1.3-2.1.9-2.7c.6-1.5 2.3-3.6 3.8-4.8l2.9-2.1h5.9c6 .1 6.7-.8 1.4-1.8-1.6-.2-4.8.2-7 .9z"/><g fill="#F2DB00" stroke="#F2DB00" stroke-width="3.5"><path d="M428.9 56.9C418.8 61.7 406.3 67.5 390 75c-7.4 3.4-16.6 7.7-20.5 9.5-3.8 1.8-12.6 5.9-19.5 9-19.3 8.8-37.6 17.3-47.8 22.1-5.1 2.4-9.4 4.4-9.7 4.4s-4.6 2-9.7 4.4c-19 8.9-31.7 14.6-32.8 14.6-.6 0-.9.4-.5.9.3.6-.3.9-1.2.9-2.4-.2-14.3 5.2-14.3 6.4 0 1.1 3.9 7 5.3 7.9.5.3.8.8.7 1s1.9 4.7 4.4 9.9c7.4 15.4 9.7 30.6 7.3 48.1l-.8 5.6-12.7 2.3c-7 1.3-16.3 2.7-20.7 3.1s-12.5 1.5-17.9 2.4l-9.9 1.6-.8-1.2-.7-1.2-12.4 1.7c-6.7.9-17.9 2.8-24.8 4.1s-16.1 2.9-20.5 3.5-8.7 1.3-9.5 1.6l-1.5.6 3 2.3c1.6 1.3 2.6 2.7 2.3 3.1-.4.3-9.5 2.1-20.3 3.9s-19.9 3.5-20.2 3.8c-.5.6 1.7 1.3 17.7 5.2 15.3 3.7 32.1 8.3 32.8 9 .6.6-3.5 17.2-20.7 83.5-1.5 5.8-2.7 10.6-2.5 10.8.1.2 5.5-.6 11.9-1.8 13.7-2.4 39.7-6 43.9-6h2.9l-.5 16.6-.4 16.5 3.1-3.3c1.7-1.8 8.7-9.4 15.6-16.8 6.8-7.4 12.7-13.7 13.2-13.8 1-.5.9-3.5-.1-3-1 .4-19.8 21.2-23.2 25.7-1.4 1.8-3.4 3.3-4.5 3.4l-2 .2.4-14.4.4-14.4-6.4.8c-3.5.4-7.7.9-9.4 1-1.6.2-3.7.5-4.5.8-3.1 1.2-36.5 5.5-37.1 4.9-.4-.4 1.3-8.4 3.6-17.7 6.3-24.7 15-57.8 17.4-66.5 1.1-4.1 1.7-7.8 1.3-8.1-1.1-1-13.3-4.4-26.9-7.6-12.1-2.8-15-4.5-9.6-5.6 10.4-2.2 18.8-3.7 25.1-4.7l7.4-1.2-3.2-1.9c-1.7-1.1-3-2.5-2.7-3.2l.4-1.2 11.4-1.7c30.5-4.6 38.7-6 41.7-6.9l3.3-1.1 1.9 1.7 1.9 1.7 4.8-1.2c8.7-2.1 18.7-3.4 26.3-3.5 4.1 0 7.7-.3 8-.7s8.2-1.9 17.5-3.3l17-2.6 1.2-1.5c.6-.9 1.4-6.3 1.8-12l.7-10.5-1-8.3-1.1-8.3-3.9-10.4c-2.2-5.7-4.7-12.1-5.6-14.2l-1.7-3.8 5.8-2.5c8.6-3.8 28.8-13.1 36.8-16.9 3.9-1.8 13.5-6.3 21.5-10 8-3.6 18.1-8.4 22.5-10.5s10.4-4.8 13.3-6c2.9-1.3 5.1-2.5 4.9-2.7-.6-.5-25.5 8-29.5 10.1-1.6.8-8.1 3.6-14.3 6.1-6.3 2.6-11.9 5.1-12.6 5.7-.7.5-2.2.8-3.5.6l-2.3-.3 12-6.6c15.9-8.8 34.1-17.9 44-21.9 4.4-1.8 8.5-3.7 9.1-4.2 3.5-2.6 41.4-14.8 50.2-16.1 1.3-.2 6.4-4.4 11.5-9.5s9.8-9.2 10.6-9.2h1.3l-.6 1.5c-.3.8-.4 1.5-.2 1.5.6 0 4.7-7.2 4.4-7.5-.2-.1-3.7 1.4-7.9 3.4zM425 97c-1.9 1.6-4.5 3.9-5.7 5.1l-2.3 2.2.1 30.1v30.1l1.4-4.5c.8-2.5 2-9 2.6-14.5 1.4-12 1.6-12.8 3.2-12.3l1.2.5.3 28.6c.1 15.8.6 28.7 1 28.7s9-.9 19.2-2c29.6-3.1 50.7-5 55.6-5h4.5l-.7 1.1-.7 1.1 2.9-.6c1.6-.3 8.2-1.3 14.7-2.2 6.4-1 11.7-2.1 11.7-2.6 0-.4 2.1-.8 4.8-.8 2.6 0 6.5-.4 8.7-.9s7.1-1.2 10.9-1.6l6.8-.7-1-1-.9-.9-18.4 2.7-18.4 2.7-9.5-.1c-5.2 0-14.7.6-21 1.4-18.2 2.4-64.4 7.1-65.2 6.7-.5-.2-.8-21.5-.8-47.4 0-25.8-.3-46.9-.7-46.9-.5 0-2.4 1.4-4.3 3zm147 79.3c0 .2 2.4 1.6 5.3 3.1 6.2 3 8.6 5.4 12.1 12l2.6 4.9v8.6c0 4.7-.5 12.6-1 17.6-.5 4.9-1.7 16-2.5 24.5l-1.5 15.5-2.2 5.8-2.1 5.9-4.9 5.3-4.9 5.4-6.7 3.2-6.6 3.1-24.1 3.4c-13.2 1.9-24.9 3.5-26 3.5-1.1.1-5.1.7-9 1.5-3.8.8-13.1 2.3-20.5 3.4-7.4 1-15.1 2.4-17 2.9-6.8 2.1-16.8 1.1-25.2-2.4l-1.8-.7v1.4c0 .8 2.3 4 5.1 7.1 2.8 3.2 4.8 6.1 4.4 6.5-.3.4-5 1.5-10.3 2.4s-9.8 2.1-10 2.7c-.8 2.5-12.6 19.1-16.4 23.2-8.2 8.8-27.9 22.7-30.7 21.7-.6-.1 4.7-6.2 11.7-13.4s13.7-14.9 15-17.2l2.3-4.2-1.3-.1c-.7 0-.3-.4.8-.9 2-.8 5.2-7.1 3.6-6.9-.4 0-3.2 3.5-6.2 7.7-6.3 8.7-21.8 25.1-28.8 30.5-2.6 1.9-5.8 4.5-7.2 5.7-3.4 3.1-18 12.5-24 15.5l-4.8 2.5-4.8-2.1c-12.9-5.8-32.9-19.7-49.7-34.9-8.1-7.3-3.8-1.5 6.9 9.2l9.8 9.8h-1.8c-2.3 0-8.3-3.2-13.7-7.2-2.4-1.8-6.3-4.6-8.5-6.1-2.3-1.5-5.1-3.8-6.3-5.1l-2.2-2.4-2.2.5-2.2.5 1.3-.9 1.2-.9-4.1-3.4-4.2-3.3 2.6 3.9c9.7 14.2 56.5 49.3 75.3 56.5l2.5.9 3.7-1.9c23.8-11.9 50.3-32.7 67.4-53.1 4.5-5.2 8.8-10.2 9.7-11s2.5-3.4 3.5-5.8c2.6-5.8 2.9-6 14.7-7.7 5.7-.9 11-1.8 11.7-2.1l1.4-.4-4.1-4.6c-2.3-2.6-4.1-5.1-4.1-5.6v-.9l6.8.6 6.7.7 5.9-1.7c3.3-1 17.7-3.5 32-5.6 54.6-8 66.2-9.9 70.4-11.5 9.7-3.6 20.5-15.7 23-25.6.6-2.4 2-15.1 3.2-28.3 1.1-13.2 2.3-26.5 2.6-29.6l.6-5.5-1.6-6.5c-2.1-7.9-5.7-13.3-11-16.4-4-2.3-9.6-4.2-9.6-3.2zM315.5 378c-.3.6.4 1 1.7 1 2.5 0 7.4 2.9 5.1 3-1.9 0-1.6 3 .3 3h1.5l-1.4 1.5-1.5 1.5-3-.6-3-.6-.4-2.9-.5-2.9 1.6-.1h1.6l-2.2-1.1c-2.6-1.3-3-2.8-.7-2.8.8 0 1.2.4.9 1z"/><path d="M313 225.6c-4.7.7-8.7 1.3-8.9 1.3-.3.1.8 1.5 2.4 3.1l2.9 3-3.8 13.8c-2.1 7.5-5.5 20.4-7.7 28.7-2.1 8.2-5.4 21.1-7.3 28.5-2 7.4-3.6 13.9-3.6 14.4 0 1.1 8.3 0 11-1.4l1.8-1 1.8-7 1.8-7 3.6-.7c1.9-.4 5.5-.7 8-.7l4.5-.1.3 4.5c.1 2.5.5 5.6.8 6.9l.5 2.4 6.1-.7c3.4-.3 6.3-.8 6.6-1 .5-.5-1.4-19.4-3.3-33.1-.7-5.5-2.4-20.2-3.6-32.8l-2.3-22.7-1.5.1c-.9.1-5.4.7-10.1 1.5zm5.3 18.6c2.6 1.3 3.6 2.8 1.8 2.8-.5 0-1.1.9-1.4 2s-.1 2 .4 2 .9-.7.9-1.5.4-1.5.8-1.5c1.7 0 2.1 1.3 1.1 3.1l-1 1.9h1.1c.5 0 1 .4 1 .9 0 1.3-3.2 2.3-3.9 1.3-.3-.5-1.5-1.2-2.5-1.6l-1.9-.7-.8 1.2-.7 1.2-2.8-.8-2.9-.8 1.5-.4c.9-.2 2.1-1.7 2.7-3.3l1.1-2.8-1-1c-2.7-2.7 1.9-4.1 6.5-2zm-1.9 19.5c.3 2.1.6 6.2.6 9.1s.3 5.1.8 4.8c1.2-.7.1 7.8-1.2 8.6-1.4 1-9.6 1-9.6.1 0-.4 1.4-6.4 3.2-13.5l3.1-12.8h1.2c.7 0 1.5 1.7 1.9 3.7zM328 283c0 .5-.5 1.2-1.2 1.6l-1.1.7 1.7 1.2 1.7 1.3-1.3 2.7-1.2 2.6 1.4.9 1.4.8-1.3 1.6c-.7.8-1 2-.6 2.6.7 1.1-1.1 4-2.5 4-.4 0-1-1.2-1.3-2.8l-.6-2.7-3.3-1.3-3.4-1.2-3.2.9-3.2 1v-1.5c0-.8.5-1.2 1-.9.6.3 1.3-.1 1.6-.9.3-.9 1.4-1.6 2.3-1.6 1 0 2.3-1.1 2.9-2.5s1.6-2.5 2.2-2.5c.5 0 1-.7 1-1.5s.6-1.5 1.3-1.6l1.2-.1-1.2-.5c-1.9-.7-1.6-2.1.5-2.6 2-.4 5.2 1 5.2 2.3zm-24.7 5c.3 1.1 1.2 2.2 2.1 2.5s2.3.7 3.1 1l1.5.4-1.2 2.6c-.6 1.4-1.6 2.5-2.2 2.5-1.3 0-7.6 5.4-7.6 6.5s-3 3.7-3.9 3.3c-1.4-.5.7-4.8 2.4-4.8h1.5l-1.6-2.6-1.7-2.6.9-.6c.5-.4.9-1.7.8-3l-.1-2.2h2.9l-1.1-1.3-1.1-1.3 1.2-1.2c1.8-1.8 3.5-1.4 4.1.8zm-22.1-58.1c-2.3.4-4.6 1.2-5.1 1.7s-1.6 9.2-2.5 19.4-1.9 20.4-2.2 22.7l-.5 4.3h-2.5l-2.8-11.8c-2.5-10.5-8.3-31.3-8.9-31.7-.1-.1-3.7.2-7.9.8l-7.7.9.9 1.9 1 1.9-3.6 43c-2 23.7-3.5 43.2-3.3 43.4.5.4 11-1.1 11.5-1.7.2-.2 1.1-7.5 1.9-16.3.8-8.7 1.8-18.5 2.1-21.7l.7-5.9 1.4-.5c2.1-.8 2.1-.8 7.3 19.4 2.6 10.3 5.1 19.6 5.6 20.7l.7 1.8 6.1-.7c7.1-.8 7.1-.8 8-9.2.9-8.6 6.6-79.2 6.6-81.5 0-1.9-.2-1.9-6.8-.9zM257.6 255c1.7 0 1.9 2 .2 2-.8 0-.4.8.7 1.6l2 1.6-1.2.5c-1.9.7-1.6 1.9 1 4.9 1.2 1.4 2.2 3.6 2.2 4.9.1 1.3.4 2.7.8 3.1 1.1 1.1.8 4.4-.3 4.4-.5 0-1 .3-1 .7.1 1.1 6.7 4.3 8.9 4.3h1.9l.6-2.5c.4-1.4 1.1-2.5 1.6-2.5s.7-.7.4-1.5l-.6-1.5 2.2-.8 2.2-.8-1.6-1.3-1.6-1.4 1.1-1.3 1.1-1.4h-1.1c-1.9 0-1.2-1.7 1-2.3 1.2-.3 1.8-.3 1.5 0s.1 1.8.9 3.4l1.5 2.8-1.7 1.6-1.6 1.7 1.3.8c.7.4.9 1.3.6 1.9l-.7 1.1 1.8.1h1.8l-1.5.7c-1.7.8-2.3 2.4-2.2 6.4l.1 2.8h-4.2l2.2 1.9 2.2 1.9-1.7 1-1.7 1 .6 1.5.6 1.5-2.5 1.8c-1.3 1.1-2.4 2.4-2.4 3.1 0 1.8-2.9 1.6-3.6-.2l-.6-1.6-1.3 1.1-1.3 1.1-.6-1c-.3-.5-.4-2.5-.2-4.4l.5-3.5-1.9-1.7-2-1.8.6-2.3.6-2.4H262c-.7 0-1-.6-.7-1.4s.1-1.7-.6-2l-1.2-.4 1.3-.9 1.2-.9-2.4-1.4c-1.4-.7-2.3-1.7-1.9-2.3 1.8-3-4.6-2.8-7.6.2l-1.8 1.8.8 2.1c.8 2.2.7 2.4-2 2.6-1.7.1-2.8 2.6-1.2 2.6.6 0 1.1.7 1.1 1.5s-.6 1.5-1.2 1.5h-1.3l1.5 1c.8.5 1 1 .4 1-.5 0-1.9-.7-3-1.5l-1.9-1.4 1.8-.1c1.8 0 2.5-2 .7-2-1.5 0-1.2-2 .7-3.8l1.7-1.7-1.7-.3-1.6-.3.1-2.2c.1-1.2.8-3 1.6-3.9l1.5-1.8-1.3-1.4-1.2-1.5 1.2-3.6 1.2-3.5h3.3l-1.3-.9-1.4-.8 1.6-.6 1.6-.6-.6-1.6-.6-1.5h1.6c.9 0 1.6-.4 1.6-.9 0-1.2 3.4-1.9 3.8-.9.2.4 1 .8 1.8.8zm-48.1-14.4c-3.8.7-10.3 1.9-14.4 2.6l-7.4 1.3 2.6 3 2.5 3-1.4 17.5c-1.4 17.9-4.7 53.5-6.4 69.5-.5 4.9-.8 9.1-.6 9.3.4.3 5.1-4.6 11.3-11.8l3-3.5 1.3-16.3 1.3-16.4 2.1-.7c1.1-.5 4.2-1.1 6.7-1.5 14.5-2.1 22.8-15.4 23.2-37.4l.2-9.8-2.8-3.7c-4.6-6.1-9.7-7.3-21.2-5.1zm9 15 1.6 1.6-.7 8.7c-1.2 14-2.8 16.7-11.2 17.8l-4.2.6v-4.9c0-2.7.5-9.2 1-14.3l1-9.5 1.3-.8c.6-.4 3.1-.8 5.4-.8h4.2zm-18.9 22.9c.4 6.6 2.5 9.1 7 8.6.6-.1 1.9.8 2.8 1.8l1.8 2-5.6 2.6c-3.1 1.5-5.6 3.3-5.6 4.1s-.7 1.4-1.6 1.4c-.8 0-1.3.4-1 .9.3.4-.1 1.7-.9 2.7l-1.4 1.9-1.8-1.8-1.8-1.8 2.3-.5c2.7-.8 2.8-2.1.2-2.9l-2.1-.7.7-3.6c.4-2 .8-5.1.9-6.7 0-1.7.6-4.2 1.3-5.7.6-1.5.9-3.5.5-4.4l-.6-1.6 2.4.4 2.3.3zM163.5 248c-.3.5-2.7 1-5.3.9-3.9 0-9.3.4-11.1 1-.3 0 .9 1.6 2.7 3.4l3.1 3.2-2.5 9.5c-1.4 5.2-4.9 18.9-7.9 30.5-2.9 11.5-6.7 26.3-8.5 32.8-1.7 6.6-2.9 12.1-2.7 12.4.3.2 3.1.1 6.3-.4l5.9-.8 2.1-8 2.1-8 5.1-.8c2.9-.5 5.2-1.3 5.2-1.7 0-1.3 3.3 0 4.8 1.8.6.9 1.2 3.9 1.2 6.8s.4 5.5.9 5.8c.9.6 12.1-1 12.9-1.9.7-.6-2-28-4.8-50-1.1-8.3-2.3-18.4-2.8-22.5l-.7-7.5-1.7.3c-.9.1-1.9-.2-2.3-.8-.3-.5.3-1 1.4-1h2.1v-6h-2.4c-1.4 0-2.8.4-3.1 1zm.7 22.1-.4 2.2 1.6-.6 1.6-.6v1.4c0 .7-.5 1.7-1.1 2.1l-1.1.6 1.3.8 1.2.8-1.6 1.6c-2 2-3.1 2.1-2.3.1.7-1.8-.4-1.9-5.5-.3-4.2 1.2-6 .5-4.1-1.4.7-.7 1.2-2 1.2-3s.5-1.8 1-1.8c.6 0 1-.7 1-1.5s-.5-1.5-1.2-1.5h-1.1l1.7-1.9 1.8-1.9 3.1 1.3 3.2 1.3zm-3.9 13.6c.3.5.8 6.2 1.2 12.9l.7 12-3.6 1.1c-2 .6-4.5.9-5.6.6l-2-.5.6-2.7c.3-1.4 1.2-4.6 1.9-7.1.8-2.5 1.9-7.3 2.6-10.8l1.2-6.2h1.3c.7 0 1.5.3 1.7.7zm10.7 20.8 1.2 1.5-1.2 1.5-1.2 1.5 1.6.6 1.7.7-.6 1.6c-1.1 2.7-1.3 6.1-.3 6.1.5 0 .6.6.2 1.2-.5.7-.8 2.4-.8 3.8l-.1 2.5-1.9.3-1.9.4.6-1.6c.3-.8.1-1.8-.5-2.2l-1-.7 1.3-.7 1.2-.8-3.9-1.1-3.9-1-3.7.8c-2 .5-3.9.7-4.2.4-1.2-1.2-10.6 5.5-10.6 7.6 0 .6-.9 1.1-2 1.1-2.4 0-2.6-1.6-.3-2.9l1.7-.9-1.1-1.4c-2.6-3.2 1.7-13.7 5.6-13.8.8 0 1.1.3.8.7-1.1 1 2.4 4.3 4.5 4.3h1.8v2c0 1.1.5 2 1.1 2s1.3-.9 1.6-2 1.2-2 2-2c1.7 0 8.4-6.8 7.1-7.2-.5-.2-.6-1.1-.3-2.1.9-2.1 3.8-2.2 5.5-.2z"/></g><path fill="#282400" stroke="#282400" stroke-width="3.5" d="M420 85.9c0 .5.6.9 1.3.8 4.8-.1 6.1.5 12.4 6.4 3.8 3.5 3.4 11.1-.9 15.6l-2.1 2.3h1.9c4.6 0 6.8-9.6 4-16.5l-1.5-3.5-4.7-3c-4.5-2.8-10.4-4-10.4-2.1zm-185.5 47c-1.7 1-4.3 3.3-5.8 5l-2.7 3.3v4.9c0 8.1 3.3 13.9 9.4 16.4l3.6 1.5v-3.8l-1.7.4c-4.1.9-9.4-7.3-9.5-14.5-.1-5.3 2-8.4 7.7-11.1l4.7-2.3 4.9.6c2.7.3 5.5 1 6.2 1.4 1.4.8 3.7 1.3 3.7.7 0-.2-1.8-1.3-4-2.4l-3.9-2h-9.6zM434 328.6c3.5 9.1-3.2 18.4-13.3 18.4h-4.5l-.5-1.3c-.2-.6-.7-1-1-.7-1.4 1.3 1.4 3.3 5.5 3.7l4.5.5 3.2-1.6c1.7-.9 4.5-3.5 6.1-5.8l3-4.1v-3.9c0-4.1-1.4-7.8-3-7.8h-1zM251.6 340c-.9 2.2-1.6 6-1.6 8.3v4.3l2.3 4.4 2.2 4.5 3.5 1.7c4.2 2.1 11.9 2.3 14.5.4l1.8-1.3-.6-1.7-.7-1.6-2.1 2.1-2.1 2.1-5.1-.5-5.1-.4-2.8-3.4c-3.2-3.8-4.3-8.4-3.4-13.7 2-10.2 1.8-11.5-.8-5.2z"/><path fill="#D7B600" stroke="#D7B600" stroke-width="3.5" d="M416.2 140.7c-.1 14.4.1 26.4.6 26.6.4.3.6-8.3.4-19.1-.4-32.4-.8-35.3-1-7.5z"/><path fill="#0D0000" stroke="#0D0000" stroke-width="3.5" d="M414.9 81.3c-5 2.4-11.8 8.3-12.9 11.1l-1 3 .9.9.8.8.7-2.4c.7-2.8 10.8-11.2 13.6-11.2 1.1 0 2-.4 2-.8V81c0-1.3-.9-1.2-4.1.3zm8.1.5c0 .5 1.8 1.4 4.1 2.1 2.2.7 5.8 2.8 7.9 4.7l3.9 3.6.6 3.1c1.2 7.1 1.2 8.3-.2 11.7-1.4 3.5-5 8-6.4 8-.4 0-1-.8-1.2-1.8-.3-.9-.5.2-.6 2.5-.1 5.3 0 5.3 5.3-.3 7.1-7.5 8.3-14.7 3.9-23.5l-2.8-5.4-4-2.1c-4.6-2.5-10.5-4-10.5-2.6zM236.4 127c-9.6 2.2-17.6 14.4-15.9 24 .6 3.6 4.2 9.5 7.7 12.7 4.4 4.1 13.8 6.1 13.8 2.9v-1.2h-6.8l-4-2.6-4-2.7-2.2-4.6-2.3-4.7.6-4.8c1.1-9.1 7.3-15.8 16.3-17.5l3.5-.6 5.2 1.7c6.1 2 7.9 3.2 7 4.8l-.6 1.1 1.3-1.2 1.4-1.3-2.3-2.4c-3.6-3.8-11.6-5.4-18.7-3.6zm-87.9 98.2c-1.6.6-4.5 2.2-6.4 3.6l-3.3 2.5 1.3.8 1.4.8 1.5-1.8c.8-1.1 3.6-2.6 6.1-3.5l4.7-1.5 3.8.6 3.8.6-1.9.8-2 .8h2.6c1.5.1 3.2-.5 3.8-1.3l1.2-1.4-3.2-1.1c-3.9-1.3-9.4-1.3-13.4.1zm27.9 14.7c.3.5 0 1.1-.7 1.4l-1.4.5.5 3.1c.5 3.8-.5 8.4-1.8 7.6l-1-.6.3 3.9.2 3.9 1.1-.4c1.6-.6 3.4-8.1 3.4-13.7v-4.4l1.2-.4 1.2-.4-1.8-.7c-.9-.4-1.5-.3-1.2.2zM410 316.6c-2.5 1.4-5.7 4.3-7.2 6.4l-2.8 3.8v6.5l2.1-1.9c2.7-2.4 5.2-7.2 4.4-8.4-.3-.6.7-1.5 2.2-2.2s3-1.5 3.3-1.9c.3-.3 1.5-1.1 2.6-1.7l2.1-1.1 6.4.5c3.5.4 6.6 1 6.7 1.5.2.5 2.2.8 4.5.8 2.3-.1 3.3-.4 2.3-.6-1-.3-3.3-1.4-5-2.4l-3.1-1.9-7 .1h-7zm28.3 11.5 1.9 3.8-.7 4c-.4 2.2-2.2 6-4 8.4l-3.4 4.4-4.5 1.3c-5.1 1.4-12.5.8-13.6-1.1l-.8-1.2-2.8 2.8c-1.6 1.6-2.1 2.3-1.2 1.6l1.7-1.2 2.2 1.2c6.5 3.4 18.2.6 23.8-5.8l4-4.5.7-4.5.7-4.5-1.2-3.8c-.6-2.1-1.9-4-2.9-4.2l-1.8-.5zm-180.8 1.4c-2.2.8-5.4 3-7.2 4.9l-3.2 3.5-1.6 5.5-1.6 5.6 1.5 5.4 1.6 5.3 4 4.1 4 4 4.4 1.1c6 1.5 10.3 1.3 15.1-.5 2.2-.9 4.6-1.6 5.3-1.6 1.7-.2 1.6-.3-1.4-2.3-1.5-.9-2.4-1.2-2-.7 1.1 1.9-3.5 3.4-9.9 3.4-9.5-.1-14.7-3.5-18-12l-1.8-4.3.7-4.5c1.6-12 10.6-17.3 24.4-14.3l4.9 1 2.6 2.7c1.4 1.5 2.9 4 3.3 5.6l.7 2.9-1.4-.8c-.8-.5-.6.1.5 1.3 2.6 3 3.7 1.8 3-3.1-1.1-7.2-7.8-12-18.4-13.1l-5.5-.6z"/><path fill="#FFDB00" stroke="#FFDB00" stroke-width="3.5" d="M313 377.8c0 .5 1 1.4 2.3 2l2.2 1.1h-1.6l-1.6.1.5 2.9.4 2.9 3 .6 3 .6 1.5-1.5 1.4-1.5h-1.5c-1.9 0-2.2-3-.3-3 2.3-.1-2.6-3-5.1-3-1.3 0-2-.4-1.7-1s-.1-1-.9-1c-.9 0-1.6.4-1.6.8z"/><path fill="#1B6D40" stroke="#1B6D40" stroke-width="3.5" d="M403.4 148.5c0 16.5.2 23.4.3 15.3.2-8.1.2-21.6 0-30-.1-8.4-.3-1.8-.3 14.7z"/><path fill="#0DDBBF" stroke="#0DDBBF" stroke-width="3.5" d="m353 228.5-1.3 1.5 1.5-.5 1.5-.6.1 1.6c.1.8.3 2.2.4 3s.6 1.1 1.1.8 1.3.1 1.8.8l.9 1.4V231h4.2l-.7 1.7c-1.7 4.4-1.6 4.6.9 1 3.2-4.7 3.2-4.6-.4-4.5-1.7.1-3.6-.4-4.2-1-1.7-1.7-4.3-1.5-5.8.3z"/><g fill="#00DBBF" stroke="#00DBBF" stroke-width="3.5"><path d="M389.5 105.1c-6 2.8-15.9 7.3-22 10.1-6 2.8-15.6 7.3-21.2 9.9-5.7 2.7-10.5 4.9-10.7 4.9-.3 0-5.3 2.2-11.1 5-5.8 2.7-10.8 5-11.1 5s-3.8 1.5-7.7 3.4c-4 1.9-12.5 5.9-18.9 9-6.5 3-11.8 5.8-11.8 6.2s1.1 3.5 2.4 6.8c1.3 3.4 3 9.7 3.6 14.1.7 4.4 1.6 9.1 2 10.5l.7 2.5 1.3-5.9 1.2-5.9-.9-.6c-.5-.3-1.6-3.5-2.3-7.1s-1.9-7.9-2.6-9.7l-1.3-3.2 5.7-2.7c3.1-1.4 8.6-3.9 12.2-5.4s13.3-5.8 21.5-9.5c8.3-3.7 19.5-8.6 25-11 10.5-4.5 29.2-12.9 36-16.1 2.2-1 4.3-2.4 4.7-2.9.4-.6.8-.7.8-.3s2.5-.4 5.7-1.7c3.1-1.4 5.7-2.4 5.9-2.3.3.4 2.4 69.9 2.4 80v7.7l1.3-.5 1.2-.4-.2-33.3c-.2-18.2-.3-39.6-.3-47.5 0-7.8-.1-14.2-.2-14.2-.2 0-5.2 2.3-11.3 5.1z"/><path d="m354.3 140.5-3.1 1.4-7.8 12.3c-4.3 6.8-13.3 20.7-20 31-16.8 25.5-16.3 24.4-9.9 23.2 2-.3 3.2-1 2.6-1.3l-1.1-.7 21.5-32.3c11.9-17.7 21.3-32.6 21-33.1-.3-.4.1-1.1.7-1.3.7-.3.9-.5.3-.5-.5 0-2.4.6-4.2 1.3zm22.2 11.7c-.3.7-.6 8.3-.7 16.8l-.3 15.4-12.4 3.3c-6.9 1.8-13.1 3.9-13.9 4.7l-1.5 1.5 3.8-.5c4.9-.6 23.2-5.1 26.4-6.5l2.4-1-.6-16.2c-.4-8.9-.7-16.8-.7-17.5 0-.6-.5-1.2-1-1.2-.6 0-1.3.6-1.5 1.2zm173.7 39.7c-12.8 2.1-13.2 2.3-10.7 5.1l1.8 2-.7 10.7c-.8 12.2-5.3 60.8-6.2 66.5-.8 5.4-.4 5.6 10.3 4.1 11.9-1.6 15-2.6 20.1-6.3l4-2.9 2.5-5.3 2.6-5.3 1.1-14c.6-7.7 1.7-20.6 2.5-28.6l1.4-14.5-1-3.7c-.5-2-2-4.9-3.3-6.4l-2.3-2.6-5.4-.3c-3-.2-10.5.5-16.7 1.5zm15.3 13.5 1.6 2.4-1.5 16.4c-2.9 30-3.6 36.3-4.8 38.5-1.4 2.8-5.6 4.5-9.9 4.1l-3.4-.3.2-3c0-1.7 1.1-15.1 2.4-30l2.3-26.9 1.8-1.8 1.8-1.8h8zm-18.1 26.3c-.1 6.5-.5 14-.8 16.8l-.6 5-1.7 1.3-1.8 1.2 1.4 2.2 1.3 2.1-2.3 1.8c-4 3.1-5.6 1.4-2.3-2.3l1.7-1.8-1.4-.5-1.4-.5.2-5.5c0-3.1.6-6.2 1.3-6.9l1.1-1.4-1.1-.7c-1.1-.7-.3-5.2 1.2-7.2.5-.7.7-1.7.3-2.3-.3-.5.1-1.3.9-1.6.9-.3 1.4-1 1.1-1.4s-.7-2.4-.9-4.4l-.5-3.6 1.7-.9c.9-.6 2-1.1 2.3-1.1.4 0 .5 5.3.3 11.7zm26.9-5.3c-.4.6-.8 4.3-.8 8.3-.1 3.9-.6 7.8-1.3 8.5-.6.8-.9 2.4-.5 3.6.3 1.2.1 2.2-.5 2.2s-1.7.3-2.6.6l-1.6.6v-6c0-3.4.5-6.4 1.1-6.8l1.1-.6-1.1-1.1c-1.6-1.6-1.4-4.4.5-7.2.9-1.3 1.3-2.9.9-3.6-.4-.6-.1-1.5.6-2l1.4-.8 1.7 1.6c1 .9 1.4 2.1 1.1 2.7zm-29.8 41.7v2.4l1.8.3c.9.2 1.5.8 1.2 1.3-.4.5 0 .9.7.9s.3.7-.9 1.5c-2.3 1.6-5.3 1.1-5.3-1 0-.7-.7-1.5-1.4-1.8l-1.5-.6 1.5-3.1c1.8-3.5 3.9-3.5 3.9.1zm-32-70.3-4 .5 4.5 1.2 4.5 1.3-3.8.1c-2 .1-4.6-.4-5.6-1-1-.7-3-.9-4.5-.5l-2.6.6 1.9 2.8 2 2.7-5.4 21c-3 11.5-7.9 29.9-11 40.8-3 10.9-5.5 20.3-5.5 20.8 0 1.2 3.6 1.1 8.1-.1l3.6-1 1.3-6c1.7-8.1 2.5-8.9 10-10.1l6.4-1 1.2 1.6c.7.9 1.5 4.1 1.9 7.1l.7 5.6 5.6-.7c3.2-.4 5.8-.8 6-1 .3-.3-2.2-24.7-7.4-71.5-.7-6.9-1.4-12.8-1.4-13.3 0-.4-.6-.6-1.2-.5-.7.1-3.1.3-5.3.6zm3 21.3c-.3.4.1.9.9 1.2l1.4.5-.5 2.7-.5 2.6-4-.3-4.1-.2-1.9 2.3c-2.2 2.8-3.6 2.1-2.1-1.2 2.5-5.4 3.3-7.9 2.7-8.9-.4-.6.1-1.7 1.1-2.4l1.7-1.3 2.9 2.1c1.5 1.2 2.6 2.4 2.4 2.9zm-4.7 13.1c.5.7 1.3 6.5 1.7 12.8l.7 11.6-1.5 1.3c-.9.7-3.3 1.1-5.4.9l-3.8-.3.1-2.5c.1-1.4.7-5.8 1.3-9.7l1.3-7.3-1.6-1.6c-1.7-1.7-2.1-3.4-.8-3.4.4 0 1.3.5 2 1.2l1.1 1.1 1-2.6c1.1-3 2.3-3.4 3.9-1.5zm10 22.6c.2 1.8.8 3.2 1.3 3.2h1l-.6 3.2c-.3 1.8-.7 5-.8 7.1-.2 3.3-2.2 5.6-2.2 2.4 0-1.6-4.9-3.7-8.6-3.7H508v-3.8l2.5-.6c1.4-.4 2.5-1.2 2.5-2 0-.7.9-2.1 1.9-3 1.1-1 1.7-2.5 1.4-3.3-.6-1.6 1.5-3.5 3.2-3 .6.2 1.1 1.8 1.3 3.5zm-22.3 4.2c1 1.1 2.6 2.2 3.6 2.5l1.9.6v4.9l-4.6 3-4.7 2.9-1.8-2.3-1.8-2.3.8-2.9c.4-1.6 1.2-2.9 1.8-2.9 1.9 0 2.6-1.4 1.5-2.8-1.1-1.3-.7-2.7.8-2.7.4 0 1.5.9 2.5 2zm-22.8-56.3c-3.6.6-3.3-.7-5.2 22.8-.8 11-1.8 22.2-2 25-.3 2.7-.9 9.4-1.4 14.8l-1 9.9-1.6 2.4c-.9 1.4-2.8 2.9-4.2 3.5l-2.7 1-2.7-1.1c-1.5-.7-3-1.8-3.3-2.6-.5-1.2 1.3-23.2 4.4-56.1.5-5.9 1-12.1 1-13.7v-2.8l-4.7.6c-6.6 1-8.4 1.6-7.7 2.7.5.9-.9 21.4-3.6 51.5-2 22.6-1.3 28 4.2 31.4l3.3 2h11l5.1-2.4c5.4-2.5 9.3-6.8 11.8-12.8l1.5-3.5 2.5-30.4c1.4-16.7 2.9-33.2 3.2-36.7l.7-6.2-2.9.1c-1.6.1-4.2.4-5.7.6zm-24.9 41.5.3 2.5-2.3.7-2.3.7 2.1.9 2.2.9-.3 4.3c-.2 2.4-.6 6.5-1 9.1l-.7 4.8-1.9.9c-2.7 1.5-3.2 1.2-2.5-1.6l.7-2.6-1.3-1.5-1.2-1.5 2.3-1.9 2.3-1.9-1.7-.6-1.7-.7.7-3.6c.4-2 .9-4.8 1-6.3.4-5.5 4.7-7.6 5.3-2.6zm26.8 6.2c.3.7-.2 3.1-1 5.4l-1.5 4.1 1 .7 1 .6-1.3 1.5c-.7.9-1.3 2.1-1.4 2.7 0 .6-.2 1.6-.2 2.3-.1.6-1 1-1.9.8l-1.8-.2.1-2.4c.1-1.3-.2-4.3-.6-6.7l-.7-4.2.9-.6c.5-.3.8-1.3.7-2.2-.1-1-.1-2 0-2.4.2-1.1 6.3-.6 6.7.6zm-64.9-39.2c-5.1 1.4-13.1 8.8-15.2 14l-1.7 4.3-2.4 29.7-2.5 29.8 1.1 3.8c1.3 5 3.8 7.2 9.7 8.7l4.8 1.2 2.4 4.2 2.3 4.3 5.2-.7c6.4-.9 6.1-.4 3.5-5.9l-2.3-4.6 2.9-3c1.6-1.7 4-3.3 5.2-3.6 1.3-.4 3.4-2 4.8-3.6l2.5-3-1.8-3.2-1.9-3.1 2.5-29.2c2.6-31.5 2.6-32.7-1.7-37.5l-2.8-3.1-5.4-.3c-3-.2-7.1.2-9.2.8zm7.3 12.6 2.2 1.8-1.8 22.7-1.7 22.6-1.4.6c-.8.3-2.3 0-3.4-.5l-1.9-1.1v10l2 1.1c2.4 1.3 2.6 3.7.3 6.2l-1.6 1.8H406l-1.6-2.4-1.6-2.5 2.6-28 2.5-28 1.3-2c2.5-4 7.4-5.1 10.8-2.3zm9 14.2 1.5.9-1.1 1.8-1.1 1.8 1 2.3 1.1 2.3-1.2 2c-.7 1.1-1 3-.6 4.4.7 2.8-1.1 8.8-3.2 10.6l-1.5 1.2-1.2-1.2-1.2-1.2 1.7-1.3 1.7-1.2-.9-1.4c-.5-.8-.7-1.7-.5-2.1.3-.3 0-2-.5-3.8l-.9-3.1 1.9-1 1.8-1-.5-3.9c-.8-6.2.4-8.2 3.7-6.1zm-27 14c0 1-.8 2.3-1.7 2.9l-1.8.9 1.7 1.9 1.6 1.8-.3 4.5c-.2 2.5-.4 4.6-.5 4.7-.4.5-.7 2.3-.9 4.8l-.1 2.5h-1.5c-1.8 0-2-2.7-.2-3.3l1.2-.4-1.6-1.9-1.6-1.9.3-3.5c.1-1.9-.2-4.3-.7-5.2l-.9-1.7 1-.6c.5-.3 1-1.6 1-2.9 0-2.5 1.7-4.6 3.7-4.6.7 0 1.3.9 1.3 2zm-25.1-33c-.4 2.8-.2 3.8 1.5 6.8 1.8 3.5 1.5 5.5-.6 3.4-1.4-1.4-5.8-1.6-5.8-.3 0 .5.7 1.4 1.5 2.1l1.5 1.2v11.9l1.8-.5c.9-.2 3.6-.7 5.8-1.1l4.1-.6.6-5.8c.8-6.9-.6-12.5-3.8-15.7-2.4-2.4-6.4-3.2-6.6-1.4zm-25.6 13.7c-2.1 5-2.8 14.8-1.4 19.9l1.1 4.1 10 11.2 10 11.3v11.9l-2.5 2.4-2.4 2.5h-6.8l-1.8-2-1.8-1.9.7-5c.8-5.8.4-6.2-5.2-5.1-5.8 1-6.3 1.7-6.9 9.2l-.5 6.5 1.7 3.7 1.8 3.7 3.8 1.9c4.9 2.5 9.4 2.5 16.3-.1l5.5-2 3.9-4.4c4.8-5.4 6.2-10 6.2-19.9v-7.7l-1.5-3c-.9-1.6-5.6-7.3-10.5-12.7l-9-9.7-.6-3.2c-.7-3.5-.2-8.7 1.1-11.6l.7-1.7H359v2.4c0 2.1-2.9 4.7-3.1 2.8 0-.4-.3-1.6-.5-2.7-.3-1.1-.6-2.6-.6-3.3-.2-2.4-1.9-1.2-3.5 2.5zm9.1 19.3c1.1 2.2 2.5 4 3.2 4s1.8.8 2.3 1.8 2.1 2.4 3.4 3.1c1.4.7 3.3 3.2 4.3 5.5 1 2.2 2.4 4.5 3.1 4.9 1.4.9 1.8 4.7.5 4.7-2 0-7.5-3.4-7.9-4.9-.2-.9-2-2.7-3.8-4.1-1.9-1.4-4.2-3.9-5-5.5-3.1-5.8-4.3-7.7-5.3-8.7l-1.1-1.1 1.2-1.8c1.8-2.8 3-2.3 5.1 2.1zm16 40.9c.3.4 0 1.9-.6 3.3l-1.2 2.5-5.7 2.7c-7.8 3.6-9.5 3.8-14.3 1.6-2.2-1.1-3.5-1.9-2.7-2h1.4l-2.1-2.3c-5.4-5.7-1.2-6.3 4.8-.7l4.4 4 .7-1.1c.4-.7 1.6-.9 2.8-.6l2.1.5 1.1-1.9c.6-1.1 2.1-2.4 3.5-2.9 1.3-.5 2.4-1.6 2.4-2.5 0-1.6 2.5-2.1 3.4-.6zm-83.8 41.2c8.8 9.9 41 31.7 43.2 29.3.4-.4.1-.9-.6-1.1-3.6-1.3-22.8-14.9-31.2-22.1-5.2-4.5-10.4-8.2-11.4-8.2h-1.9z"/></g><path fill="#00B6BF" stroke="#00B6BF" stroke-width="3.5" d="M384.5 113.2c-19.8 9-30.8 13.9-41 18.3-5.5 2.4-16.7 7.3-25 11-8.2 3.7-17.9 8-21.5 9.5s-9.1 4-12.2 5.4l-5.7 2.7 1.3 3.2c.8 1.8 1.9 6.2 2.7 9.9.7 3.8 1.6 6.8 1.9 6.8.8 0 2.5-5.6 3.5-11 1.2-6.9 2.1-7.4 40-24 6.1-2.6 13.5-6 16.5-7.4 6.4-3 9-3.3 9-.9 0 .9-.8 2.5-1.7 3.6l-1.8 1.9 3.9-1.6c2.2-.9 4.1-1.4 4.4-1.1.3.2-9.4 15.2-21.4 33.2-12 18.1-22 33.1-22.2 33.5-.9 2.1 24.3-1.7 45.7-6.9l10.4-2.5 4.4.7 4.3.6v5.8l2.1.6c1.1.4 3.7.4 5.7 0l3.7-.8-3.4-.9c-4.1-1.1-3.4-1.8 4.8-4.8l6.4-2.4-.7-25.5c-1-42.2-1.9-62.1-2.5-62-.3 0-5.5 2.3-11.6 5.1zm-8.7 36.5.3 2.2 1.5-.6c.8-.3 1.4.1 1.4.8 0 .8.3 8.7.7 17.6l.6 16.2-2.4 1.1c-2.7 1.1-26.6 7-28.7 7h-1.4l1.3-1.6 1.3-1.5-3 .3-2.9.3.1-1.6c.1-.8 6.3-10.9 13.9-22.3l13.9-20.7 1.5.3c.9.2 1.7 1.3 1.9 2.5zm-72.7 179.9c-4.1.8-7.9 1.5-8.3 1.6-2.4.8 29.1 25.2 39 30.2l3.2 1.7-.1-10.3v-10.3l-6.8-3.3c-3.8-1.8-8.7-5-10.9-7.2l-4-4-2.3.1c-1.3.1-5.8.8-9.8 1.5z"/></svg>